PathFileType	4	(X/Y/Z)	C:/Users/beibeiliu/ov580/test_trc\sequence.19_training_dense_right.trc
DataRate	CameraRate	NumFrames	NumMarkers	Units	OrigDataRate	OrigDataStartFrame	OrigNumFrames
120	120	14	19	mm	120	302	344
Frame#	Time	ThumbCMC			ThumbMCP			ThumbIP			ThumbTip			IndexMCP			IndexPIP			IndexTip			MiddleMCP			MiddlePIP			MiddleTip			RingMCP			RingPIP			RingTip			PinkyMCP			PinkyPIP			PinkyTip			BackHand1			BackHand2			BackHand3	
		X0	Y0	Z0	X1	Y1	Z1	X2	Y2	Z2	X3	Y3	Z3	X4	Y4	Z4	X5	Y5	Z5	X6	Y6	Z6	X7	Y7	Z7	X8	Y8	Z8	X9	Y9	Z9	X10	Y10	Z10	X11	Y11	Z11	X12	Y12	Z12	X13	Y13	Z13	X14	Y14	Z14	X15	Y15	Z15	X16	Y16	Z16	X17	Y17	Z17	X18	Y18	Z18	
301	2.50833	259.244	24.084	49.3301	265.758	25.8862	19.2118	273.855	23.0086	-2.46443	272.85	19.3704	-24.6848	247.512	8.33008	-18.0411	253.511	33.8494	-29.0225	253.534	48.7328	-1.54043	228.878	23.9068	-22.6764	239.412	50.5622	-19.9787	237.986	46.6819	13.4298	217.462	35.2093	-13.9791	229.581	55.0005	-6.78168	233.107	44.9984	21.4011	205.45	40.156	-5.97803	216.429	57.6628	1.73891	222.48	46.2551	29.2918	205.979	9.64966	30.9645	206.631	12.2902	59.8475	229.599	2.78985	41.0019	
302	2.51667	256.494	22.9119	48.1068	266.055	23.926	20.4988	273.549	19.1597	-1.45017	274.286	17.6068	-20.336	250.852	3.95236	-14.9353	253.959	30.235	-28.8209	256.576	44.9278	-1.66694	232.815	17.536	-18.6656	240.715	46.6716	-20.3219	241.094	44.7139	12.4122	217.531	32.1062	-16.0496	230.094	53.4035	-6.14721	231.393	44.998	20.8332	206.374	36.7108	-7.28358	219.539	55.9716	1.27072	223.742	45.8125	24.6097	210.248	5.68136	29.3795	209.977	12.1924	60.5038	232.512	0.450693	42.7095	
303	2.525	260.526	21.6262	49.2588	268.946	20.8465	19.5025	277.74	16.2965	-2.42574	280.745	15.2205	-20.4228	250.89	0.840431	-13.8906	260.114	25.3685	-29.6438	260.576	42.7021	-6.76994	234.147	15.9219	-21.9514	247.539	43.3748	-20.3949	245.262	42.7453	9.79653	219.825	24.6002	-13.2799	231.609	50.9869	-7.91402	234.404	41.993	20.1864	206.606	35.6891	-9.85853	220.664	51.8983	-1.94752	229.54	40.857	23.6081	212.903	4.05993	27.8838	211.734	10.5201	57.1796	237.284	-0.463051	44.9689	
304	2.53333	259.289	20.9111	49.4106	270.157	19.2943	21.8669	275.25	13.6848	0.537914	278.989	11.8022	-18.6543	256.535	-1.60711	-16.4244	260.618	20.2396	-29.8408	258.447	39.3753	-3.77879	238.909	10.9434	-20.796	245.825	39.0447	-22.0435	248.043	38.2351	12.7188	225.033	23.2223	-15.8647	235.864	47.2493	-6.57266	235.425	40.8246	18.1206	207.372	31.3429	-9.78464	221.46	48.1929	-3.79487	225.594	43.8128	21.7804	212.974	1.41209	28.8727	211.425	7.533	55.8548	238.886	-3.75499	47.7539	
305	2.54167	260.599	20.2798	51.1486	272.402	20.136	25.6475	276.614	9.97646	0.985144	279.295	6.27902	-19.5119	256.988	-4.93881	-11.9367	263.435	16.4928	-28.7453	262.524	37.0006	-5.06508	240.039	5.63739	-17.3782	249.58	35.3738	-20.2634	249.119	36.5678	9.97015	226.034	20.2904	-15.989	236.812	41.1188	-10.3105	238.047	36.4505	18.569	206.94	25.7873	-6.9547	223.573	46.7813	-0.234309	230.233	37.9025	19.698	213.107	0.133311	32.473	209.416	6.24574	56.4357	240.282	-3.23906	48.5416	
306	2.55	263.66	17.961	51.1779	276.61	16.7552	24.8762	283.668	7.92301	2.50425	284.211	4.62911	-15.6336	263.717	-9.21282	-13.5767	264.42	13.2476	-27.4179	262.62	33.4671	-4.80974	242.918	2.25834	-18.4452	253.293	31.5696	-20.2642	249.202	33.8188	9.5447	228.186	13.7018	-14.1261	239.257	36.7988	-9.425	236.313	33.8789	19.7484	214.665	20.3332	-9.52419	224.501	40.448	-5.17428	230.765	35.2388	24.1579	216.946	-2.96724	33.5876	210.968	7.60649	58.4366	238.311	-5.01623	46.254	
307	2.55833	263.909	18.3401	51.5939	276.011	15.3685	26.0552	284.8	7.72761	7.14721	290.983	-0.633421	-17.3337	263.59	-11.0012	-11.8734	272.834	12.9433	-24.2252	269.641	29.3808	-2.72006	249.659	-1.72899	-17.9206	255.532	27.8801	-19.7786	252.887	31.8039	9.99053	229.997	9.87792	-15.7143	242.99	32.2026	-9.35316	240.127	29.6274	19.6954	214.534	16.4183	-9.90465	228.622	36.2925	-3.12778	234.177	29.8346	21.5264	217.979	-5.94431	30.7019	218.135	2.92163	55.442	242.834	-7.47443	49.1266	
308	2.56667	263.476	18.7902	51.9747	279.248	18.7046	30.2737	289.143	10.074	9.87871	294.285	1.02134	-11.7695	270.848	-13.0559	-6.43327	272.64	10.9754	-22.4884	268.824	28.0088	-3.94607	252.996	-4.14706	-17.258	256.203	21.7238	-22.4269	253.071	28.9196	10.0201	235.874	5.15787	-16.3647	241.308	29.429	-11.2878	243.958	28.4447	16.0876	221.353	5.62561	-7.28562	229.792	29.8336	-7.25107	234.217	27.0801	21.6686	223.468	-10.3796	31.9274	218.444	-1.12114	55.729	247.534	-6.479	50.2989	
309	2.575	264.14	22.1388	53.4816	284.025	18.129	28.6563	295.99	10.2552	9.26338	299.334	4.19337	-7.42407	284.059	-10.7583	-3.38798	280.866	8.57401	-21.0059	270.669	28.065	-0.710777	260.281	-9.07472	-11.4734	259.176	22.283	-19.5354	253.145	27.4433	9.86438	244.565	0.37714	-15.1936	244.542	25.641	-12.4499	242.045	26.0453	17.745	225.559	0.859174	-9.97141	232.719	22.7712	-10.5741	236.271	26.2727	16.973	230.538	-13.7884	37.357	219.58	-3.72413	58.0691	250.788	-8.59488	51.9443	
310	2.58333	266.833	26.4597	53.339	281.055	24.8363	30.8963	298.451	21.7029	14.8758	306.491	12.2293	-2.98488	292.196	-5.03009	-0.466627	288.3	12.3158	-18.5687	271.908	30.3432	-2.37331	270.774	-6.19991	-9.39135	263.919	19.6187	-20.6481	257.155	29.66	10.5387	249.636	-5.81912	-11.7702	251.256	23.4951	-10.0703	247.025	23.923	17.0561	233.874	-5.4655	-11.5111	239.783	18.8933	-7.79472	237.7	21.5986	18.1948	240.992	-18.2872	36.7112	227.541	-6.26076	58.0308	257.634	-4.93569	53.1691	
311	2.59167	263.344	29.6559	53.4556	280.739	35.583	33.871	296.083	30.0082	18.1494	311.027	27.2146	1.13193	298.653	2.94916	3.0545	293.388	20.4771	-16.5184	271.625	37.1362	3.2525	282.623	0.711541	-8.48432	268.866	23.252	-20.0566	255.842	30.8947	8.16443	262.848	-3.27938	-9.83761	252.377	23.5849	-10.6395	247.313	22.7783	17.4877	243.213	-10.6998	-8.89775	239.095	15.3546	-10.9982	241.842	19.4735	16.0292	249.533	-17.6768	36.1883	234.001	-11.6309	56.217	261.621	-1.32971	54.8875	
312	2.6	261.253	35.0435	53.1988	280.12	41.9397	33.512	299.765	42.4136	17.3883	312.765	38.1808	1.246	305.911	17.2379	4.03671	292.679	30.9147	-16.1497	270.481	40.1084	-2.03587	289.99	7.23937	-6.51745	272.492	28.8296	-19.0996	256.278	32.0569	7.60093	270.233	0.441451	-13.2705	256.499	22.089	-11.6891	248.875	22.4523	17.4109	256.968	-7.74692	-10.7125	247.373	13.943	-8.91014	239.518	15.6323	17.7812	258.497	-20.8992	36.6332	245.583	-11.4784	55.8074	270.986	3.03414	56.6018	
313	2.60833	261.76	34.9483	50.6413	277.686	50.0718	32.5669	296.097	52.623	17.7204	311.038	54.7489	2.33291	305.492	23.7146	5.76588	292.441	40.6529	-14.2873	267.12	42.6698	-1.41454	292.742	10.3197	-8.32546	272.666	28.8378	-19.4332	255.067	32.6752	7.02803	276.349	-0.814914	-10.3936	257.565	20.9642	-13.3335	248.058	21.9492	13.9525	263.859	-7.76113	-10.7644	251.1	13.8257	-7.9919	241.488	14.4273	15.1813	270.736	-15.4025	35.083	247.112	-15.5041	56.9231	271.948	5.50987	55.7121	
314	2.61667	257.806	40.5352	52.6893	271.647	51.5119	31.7697	293.587	55.4697	14.8654	306.322	61.8616	1.43923	306.621	35.0175	4.0463	291.141	44.6767	-14.9019	263.798	41.1545	-2.41059	296.866	17.9689	-5.50675	271.316	32.2917	-17.9643	252.827	27.5416	4.41544	281.958	4.31536	-9.57813	261.877	21.0888	-11.6058	250.707	21.1102	16.3808	273.646	-7.17928	-5.44582	255.437	10.2458	-7.90254	248.915	14.3943	16.9565	277.679	-14.931	35.7556	257.891	-10.4142	56.8281	275.496	12.1695	57.1228	
